<svg xmlns="http://www.w3.org/2000/svg" viewBox="0 0 32 32" width="32" height="32">
  <defs>
    <linearGradient id="gradient" x1="0%" y1="0%" x2="100%" y2="100%">
      <stop offset="0%" style="stop-color:#007AFF;stop-opacity:1" />
      <stop offset="100%" style="stop-color:#34C759;stop-opacity:1" />
    </linearGradient>
  </defs>
  
  <!-- Background circle -->
  <circle cx="16" cy="16" r="15" fill="url(#gradient)" stroke="#fff" stroke-width="1"/>
  
  <!-- Book pages -->
  <rect x="8" y="10" width="12" height="14" rx="1" fill="#fff" opacity="0.9"/>
  <rect x="10" y="12" width="8" height="10" rx="0.5" fill="none" stroke="#007AFF" stroke-width="0.5"/>
  
  <!-- AI sparkle -->
  <path d="M22 8 L24 10 L22 12 L20 10 Z" fill="#FFD60A"/>
  <circle cx="25" cy="12" r="1" fill="#FFD60A" opacity="0.8"/>
  <circle cx="19" cy="6" r="0.8" fill="#FFD60A" opacity="0.6"/>
  
  <!-- Factory gear -->
  <circle cx="12" cy="7" r="2.5" fill="none" stroke="#34C759" stroke-width="0.8"/>
  <circle cx="12" cy="7" r="1" fill="#34C759"/>
  <path d="M12 4.5 L12.5 6 L11.5 6 Z" fill="#34C759"/>
  <path d="M12 9.5 L11.5 8 L12.5 8 Z" fill="#34C759"/>
  <path d="M14.5 7 L13 6.5 L13 7.5 Z" fill="#34C759"/>
  <path d="M9.5 7 L11 7.5 L11 6.5 Z" fill="#34C759"/>
  
  <!-- Text lines -->
  <line x1="11" y1="15" x2="17" y2="15" stroke="#007AFF" stroke-width="0.4" opacity="0.7"/>
  <line x1="11" y1="17" x2="16" y2="17" stroke="#007AFF" stroke-width="0.4" opacity="0.7"/>
  <line x1="11" y1="19" x2="18" y2="19" stroke="#007AFF" stroke-width="0.4" opacity="0.7"/>
</svg>